<svg width="44" height="44" viewBox="0 0 44 44" fill="none" xmlns="http://www.w3.org/2000/svg">
<path d="M38.5 13.75V38.5H13.75V13.75H38.5ZM38.5 11H13.75C13.0207 11 12.3212 11.2897 11.8055 11.8055C11.2897 12.3212 11 13.0207 11 13.75V38.5C11 39.2293 11.2897 39.9288 11.8055 40.4445C12.3212 40.9603 13.0207 41.25 13.75 41.25H38.5C39.2293 41.25 39.9288 40.9603 40.4445 40.4445C40.9603 39.9288 41.25 39.2293 41.25 38.5V13.75C41.25 13.0207 40.9603 12.3212 40.4445 11.8055C39.9288 11.2897 39.2293 11 38.5 11Z" fill="#538FFE"/>
<path d="M5.5 24.75H2.75V5.5C2.75 4.77065 3.03973 4.07118 3.55546 3.55546C4.07118 3.03973 4.77065 2.75 5.5 2.75H24.75V5.5H5.5V24.75Z" fill="#538FFE"/>
</svg>
