<svg width="32" height="31" viewBox="0 0 32 31" fill="none" xmlns="http://www.w3.org/2000/svg">
<path d="M25.5702 9.03504C25.472 8.65013 25.193 8.3595 24.874 8.27038C24.3082 8.1115 21.5582 7.74984 15.7457 7.74984C9.93325 7.74984 7.18458 8.1115 6.61496 8.27038C6.29979 8.35821 6.02079 8.64884 5.92133 9.03504C5.78054 9.58271 5.41241 11.8767 5.41241 15.4998C5.41241 19.1217 5.78054 21.4157 5.92133 21.9659C6.0195 22.3495 6.2985 22.6402 6.61625 22.728C7.18458 22.8882 9.93195 23.2498 15.7445 23.2498C21.557 23.2498 24.3069 22.8882 24.8752 22.7293C25.1904 22.6415 25.4694 22.3508 25.5689 21.9646C25.711 21.417 26.0778 19.1165 26.0778 15.4998C26.0778 11.8832 25.711 9.584 25.5702 9.03504ZM28.0721 8.39309C28.6624 10.6948 28.6624 15.4998 28.6624 15.4998C28.6624 15.4998 28.6624 20.3048 28.0721 22.6066C27.744 23.8789 26.7843 24.8799 25.5689 25.2183C23.3614 25.8332 15.7445 25.8332 15.7445 25.8332C15.7445 25.8332 8.13266 25.8332 5.92133 25.2183C4.70071 24.8748 3.74229 23.875 3.41808 22.6066C2.82779 20.3048 2.82779 15.4998 2.82779 15.4998C2.82779 15.4998 2.82779 10.6948 3.41808 8.39309C3.74616 7.1208 4.70587 6.11975 5.92133 5.78134C8.13396 5.1665 15.7457 5.1665 15.7457 5.1665C15.7457 5.1665 23.3614 5.1665 25.5689 5.78134C26.7882 6.12492 27.7479 7.12467 28.0721 8.39309ZM13.1624 20.0207V10.979L20.9124 15.4998L13.1624 20.0207Z" fill="white"/>
</svg>
