<svg width="53" height="41" viewBox="0 0 53 41" fill="none" xmlns="http://www.w3.org/2000/svg">
<path d="M47.2031 0.956267C46.6337 0.587857 45.9824 0.364977 45.3066 0.307218C44.6308 0.249459 43.9512 0.35859 43.3275 0.625017L22.8894 8.67439C22.4055 8.87132 21.888 8.97256 21.3656 8.97252H8.28125C7.18309 8.97252 6.1299 9.40876 5.35339 10.1853C4.57687 10.9618 4.14062 12.015 4.14062 13.1131V13.4444H0V23.3819H4.14062V23.8125C4.16657 24.8934 4.61424 25.9212 5.38797 26.6763C6.16169 27.4315 7.20009 27.8541 8.28125 27.8538L13.25 38.3875C13.5865 39.0969 14.1161 39.6969 14.7783 40.1188C15.4404 40.5407 16.208 40.7673 16.9931 40.7725H19.08C20.1724 40.7638 21.2171 40.3237 21.9865 39.5481C22.7558 38.7725 23.1875 37.7243 23.1875 36.6319V28.2513L43.3275 36.3006C43.8229 36.4978 44.3512 36.5989 44.8844 36.5988C45.7115 36.5854 46.517 36.3323 47.2031 35.87C47.748 35.5022 48.1974 35.0098 48.5142 34.4338C48.831 33.8578 49.0061 33.2146 49.025 32.5575V4.36814C49.022 3.6941 48.8544 3.03099 48.5369 2.4364C48.2194 1.84182 47.7616 1.33373 47.2031 0.956267ZM19.0469 13.1131V23.8125H8.28125V13.1131H19.0469ZM19.0469 36.6319H16.96L12.8856 27.8538H19.0469V36.6319ZM24.4131 24.3094C24.0198 24.1084 23.6097 23.9421 23.1875 23.8125V12.8813C23.6057 12.795 24.0157 12.6731 24.4131 12.5169L44.8844 4.36814V32.4581L24.4131 24.3094ZM49.1244 14.2725V22.5538C50.2225 22.5538 51.2757 22.1175 52.0522 21.341C52.8288 20.5645 53.265 19.5113 53.265 18.4131C53.265 17.315 52.8288 16.2618 52.0522 15.4853C51.2757 14.7088 50.2225 14.2725 49.1244 14.2725Z" fill="#699BF7"/>
</svg>
