<svg width="22" height="20" viewBox="0 0 22 20" fill="none" xmlns="http://www.w3.org/2000/svg">
<path d="M0.629026 2.07826L0.665369 2.05762L5.25956 0L10.2182 6.0105L7.93687 8.77597C8.00514 9.8189 8.49165 10.8029 9.30429 11.5416C10.1169 12.2804 11.1993 12.7227 12.3465 12.7847L15.3885 10.7107L22 15.2185L19.7555 19.3602L19.7366 19.3951L19.7138 19.4281C19.594 19.6036 19.4268 19.7482 19.2282 19.8483C19.0295 19.9484 18.8059 20.0006 18.5788 20H17.3933C15.1092 20 12.8474 19.591 10.7372 18.7964C8.62693 18.0017 6.7095 16.837 5.09438 15.3687C3.47926 13.9004 2.19807 12.1573 1.32398 10.2389C0.449888 8.32046 0 6.2643 5.72205e-06 4.18782V3.11008C-0.000720978 2.90359 0.0567017 2.70036 0.166807 2.51975C0.276911 2.33914 0.436033 2.18715 0.629026 2.07826ZM1.69777 4.18782C1.69777 12.0556 8.7388 18.4566 17.3933 18.4566H18.3526L19.8544 15.685L15.3882 12.6399L12.9017 14.3352H12.6187C10.9251 14.3335 9.30147 13.7211 8.10393 12.6325C6.90639 11.5438 6.23279 10.0677 6.23089 8.52811V8.27089L8.09572 6.01046L4.74647 1.95054L1.69777 3.31603V4.18782Z" fill="white"/>
</svg>
