<svg width="22" height="20" viewBox="0 0 22 20" fill="none" xmlns="http://www.w3.org/2000/svg">
<path d="M21.371 2.07826L21.3346 2.05762L16.7404 0L11.7818 6.0105L14.0631 8.77597C13.9949 9.8189 13.5084 10.8029 12.6957 11.5416C11.8831 12.2804 10.8007 12.7227 9.65346 12.7847L6.6115 10.7107L0 15.2185L2.24454 19.3602L2.26343 19.3951L2.28619 19.4281C2.40597 19.6036 2.57316 19.7482 2.77183 19.8483C2.9705 19.9484 3.19405 20.0006 3.4212 20H4.60666C6.89079 20 9.15255 19.591 11.2628 18.7964C13.3731 18.0017 15.2905 16.837 16.9056 15.3687C18.5207 13.9004 19.8019 12.1573 20.676 10.2389C21.5501 8.32046 22 6.2643 22 4.18782V3.11008C22.0007 2.90359 21.9433 2.70036 21.8332 2.51975C21.7231 2.33914 21.564 2.18715 21.371 2.07826ZM20.3022 4.18782C20.3022 12.0556 13.2612 18.4566 4.60666 18.4566H3.64742L2.14565 15.685L6.61182 12.6399L9.09835 14.3352H9.38129C11.0749 14.3335 12.6985 13.7211 13.8961 12.6325C15.0936 11.5438 15.7672 10.0677 15.7691 8.52811V8.27089L13.9043 6.01046L17.2535 1.95054L20.3022 3.31603V4.18782Z" fill="black"/>
</svg>
