<svg width="25" height="25" viewBox="0 0 25 25" fill="none" xmlns="http://www.w3.org/2000/svg">
<path d="M5.57555 24.5H0.41185V8.47657H5.57555V24.5ZM2.99059 6.29086C1.33963 6.29086 0 4.97257 0 3.38171C0 1.79086 1.33874 0.5 2.99059 0.5C4.64243 0.5 5.98117 1.79 5.98117 3.38171C5.98117 4.97257 4.64155 6.29086 2.99059 6.29086ZM24.9014 24.5H19.7493V16.7C19.7493 14.8409 19.7101 12.4571 17.0647 12.4571C14.3801 12.4571 13.9682 14.4766 13.9682 16.5663V24.5H8.80986V8.47657H13.7619V10.6623H13.8339C14.5233 9.40314 16.2072 8.07457 18.7192 8.07457C23.9451 8.07457 24.9058 11.3909 24.9058 15.698V24.5H24.9014Z" fill="white"/>
</svg>
