<svg width="26" height="25" viewBox="0 0 26 25" fill="none" xmlns="http://www.w3.org/2000/svg">
<path d="M12.6974 0.500488C9.31208 0.500488 8.89018 0.51624 7.56534 0.570245C6.23505 0.63325 5.33521 0.832018 4.54124 1.12904C3.72236 1.43807 3.02491 1.84836 2.33602 2.51592C1.64246 3.17973 1.21278 3.85179 0.896749 4.64086C0.588501 5.40593 0.382223 6.273 0.316837 7.55487C0.2569 8.83223 0.244446 9.23802 0.244446 12.5001C0.244446 15.7621 0.260792 16.1686 0.316837 17.4453C0.382223 18.7234 0.588501 19.5942 0.896749 20.3593C1.21745 21.1483 1.64324 21.8204 2.33602 22.4842C3.02491 23.1525 3.72236 23.5665 4.54124 23.8711C5.33521 24.1644 6.23894 24.3669 7.56534 24.4299C8.89096 24.4876 9.31208 24.4996 12.6974 24.4996C16.0826 24.4996 16.5045 24.4839 17.8294 24.4299C19.1558 24.3669 20.0595 24.1636 20.8535 23.8711C21.6724 23.562 22.3698 23.1518 23.0587 22.4842C23.7523 21.8204 24.1819 21.1521 24.498 20.3593C24.8023 19.5942 25.0125 18.7234 25.0779 17.4453C25.1378 16.1679 25.1503 15.7621 25.1503 12.5001C25.1503 9.23802 25.1339 8.83148 25.0779 7.55487C25.0125 6.27675 24.8015 5.40143 24.498 4.64086C24.1773 3.85179 23.7515 3.17973 23.0587 2.51592C22.3698 1.84761 21.6763 1.43357 20.8535 1.12904C20.0595 0.832018 19.1558 0.63325 17.8294 0.570245C16.5038 0.512489 16.0826 0.500488 12.6974 0.500488ZM12.6974 2.66068C16.0219 2.66068 16.4189 2.67643 17.7329 2.73044C18.9448 2.78519 19.6049 2.98021 20.0432 3.14522C20.6277 3.36349 21.0364 3.62152 21.4785 4.04305C21.9121 4.46084 22.1799 4.85913 22.4064 5.42243C22.5776 5.84472 22.78 6.48077 22.8369 7.64863C22.8929 8.91474 22.9092 9.29802 22.9092 12.5008C22.9092 15.7036 22.8929 16.0869 22.8322 17.353C22.7668 18.5208 22.5644 19.1569 22.3939 19.5792C22.1581 20.1425 21.895 20.5363 21.4606 20.9623C21.0224 21.3801 20.6052 21.6381 20.0253 21.8564C19.5925 22.0214 18.923 22.2164 17.7064 22.2712C16.3854 22.3252 15.9962 22.3409 12.6631 22.3409C9.32998 22.3409 8.94156 22.3252 7.61905 22.2667C6.40707 22.2037 5.73842 22.0087 5.30018 21.8444C4.7086 21.6171 4.30305 21.3636 3.8687 20.9451C3.43046 20.5228 3.15179 20.1207 2.93695 19.5619C2.76258 19.1449 2.56331 18.4998 2.49871 17.3275C2.45434 16.0696 2.43332 15.6796 2.43332 12.4828C2.43332 9.28752 2.45434 8.89674 2.49871 7.62312C2.56331 6.45077 2.76258 5.80721 2.93695 5.38868C3.15179 4.81787 3.43123 4.42784 3.8687 4.00555C4.30227 3.58776 4.7086 3.31774 5.30018 3.10622C5.73842 2.94196 6.39073 2.74694 7.60737 2.68843C8.92833 2.64268 9.31753 2.62618 12.646 2.62618L12.6974 2.66068ZM12.6974 6.34126C9.16263 6.34126 6.30433 9.09926 6.30433 12.5016C6.30433 15.9076 9.16652 18.6619 12.6974 18.6619C16.2321 18.6619 19.0904 15.9039 19.0904 12.5016C19.0904 9.09551 16.2282 6.34126 12.6974 6.34126ZM12.6974 16.5017C10.4026 16.5017 8.54613 14.7128 8.54613 12.5016C8.54613 10.2904 10.4026 8.50145 12.6974 8.50145C14.9921 8.50145 16.8486 10.2904 16.8486 12.5016C16.8486 14.7128 14.9921 16.5017 12.6974 16.5017ZM20.8426 6.09524C20.8426 6.89256 20.1693 7.53612 19.3457 7.53612C18.5183 7.53612 17.8504 6.89181 17.8504 6.09524C17.8504 5.30242 18.5229 4.65736 19.3457 4.65736C20.1685 4.65736 20.8426 5.30242 20.8426 6.09524Z" fill="white"/>
</svg>
