<svg width="29" height="26" viewBox="0 0 29 26" fill="none" xmlns="http://www.w3.org/2000/svg">
<path d="M27.7823 2.70174L27.735 2.6749L21.7626 0L15.3163 7.81365L18.2821 11.4088C18.1933 12.7646 17.5609 14.0437 16.5044 15.0041C15.448 15.9645 14.0409 16.5395 12.5495 16.6201L8.59495 13.924L0 19.7841L2.91791 25.1682L2.94246 25.2137L2.97205 25.2565C3.12776 25.4846 3.3451 25.6727 3.60338 25.8028C3.86165 25.933 4.15227 26.0008 4.44756 26H5.98866C8.95803 26 11.8983 25.4683 14.6417 24.4353C17.385 23.4022 19.8777 21.8881 21.9773 19.9793C24.077 18.0705 25.7425 15.8045 26.8788 13.3105C28.0152 10.8166 28.6 8.1436 28.6 5.44417V4.04311C28.6009 3.77467 28.5263 3.51047 28.3832 3.27568C28.24 3.04088 28.0332 2.8433 27.7823 2.70174ZM26.3929 5.44417C26.3929 15.6723 17.2396 23.9935 5.98866 23.9935H4.74165L2.78935 20.3905L8.59536 16.4319L11.8279 18.6358H12.1957C14.3973 18.6335 16.5081 17.8375 18.0649 16.4222C19.6217 15.0069 20.4974 13.088 20.4998 11.0865V10.7522L18.0756 7.81359L22.4296 2.53571L26.3929 4.31084V5.44417Z" fill="black"/>
</svg>
